<?xml version="1.0" encoding="UTF-8"?>
<svg width="118.16" height="117.13" version="1.1" viewBox="0 0 31.262 30.99" xmlns="http://www.w3.org/2000/svg" xmlns:cc="http://creativecommons.org/ns#" xmlns:dc="http://purl.org/dc/elements/1.1/" xmlns:rdf="http://www.w3.org/1999/02/22-rdf-syntax-ns#" xmlns:xlink="http://www.w3.org/1999/xlink">
 <defs>
  <linearGradient id="linearGradient1353" x1="200.99" x2="206.16" y1="13.414" y2="22.374" gradientUnits="userSpaceOnUse" xlink:href="#linearGradient1252"/>
  <linearGradient id="linearGradient1252">
   <stop stop-color="#5919b1" offset="0"/>
   <stop stop-color="#e176ff" offset="1"/>
  </linearGradient>
  <clipPath id="clipPath1482-2">
   <path d="m204.24 12.64s1.5933 7.3192 1.0374 7.4822c-0.55587 0.16304-1.6684 0.48831-1.6684 0.48831s-2.0078-2.4961-2.2991-1.9939 0.14894 1.1595-0.87489 1.5056c-1.0238 0.34615-2.469 1.2341-3.0723 1.0377-0.60334-0.19642-1.8108-0.59004-1.8108-0.59004s0.77485-8.4119 0.77485-8.4119" fill="url(#linearGradient1486)" stop-color="#000000" style="font-variation-settings:normal"/>
  </clipPath>
  <filter id="filter1516" x="-.18236" y="-.18814" width="1.3647" height="1.3763" color-interpolation-filters="sRGB">
   <feGaussianBlur stdDeviation="0.96560779"/>
  </filter>
  <linearGradient id="linearGradient1355" x1="161.41" x2="164.74" y1="-3.6109" y2="-.27812" gradientUnits="userSpaceOnUse" xlink:href="#linearGradient1316"/>
  <linearGradient id="linearGradient1316">
   <stop stop-color="#e677ed" offset="0"/>
   <stop stop-color="#fff" offset="1"/>
  </linearGradient>
  <linearGradient id="linearGradient1357" x1="191.84" x2="190.11" y1="4.1921" y2="-2.2827" gradientUnits="userSpaceOnUse" xlink:href="#linearGradient1252"/>
  <linearGradient id="linearGradient1359" x1="194.97" x2="198.13" y1="-4.7035" y2=".36223" gradientUnits="userSpaceOnUse" xlink:href="#linearGradient1316"/>
  <linearGradient id="linearGradient1361" x1="192.64" x2="188.04" y1="7.5094" y2="-.46274" gradientUnits="userSpaceOnUse" xlink:href="#linearGradient1252"/>
  <linearGradient id="linearGradient1363" x1="192.95" x2="185.92" y1="13.919" y2="20.953" gradientUnits="userSpaceOnUse" xlink:href="#linearGradient1252"/>
  <linearGradient id="linearGradient1366" x1="204.12" x2="207.53" y1="5.1917" y2="-.70222" gradientUnits="userSpaceOnUse" xlink:href="#linearGradient1252"/>
  <clipPath id="clipPath1191-8">
   <path d="m762.92-6.6016c-0.53007-0.015727-1.0605 0.00271-1.5879 0.054687-2.1097 0.20792-4.1567 0.94802-5.9453 2.0859-1.7882 1.1376-3.3234 2.6727-4.4609 4.4609l9.8437 31.299 20.916-2.0762c3.2728-0.938 6.1606-3.1575 7.9102-6.0781s2.3422-6.5137 1.625-9.8418c-0.52097-2.4175-1.7437-4.7185-3.6328-6.3145-1.8892-1.5959-4.4681-2.4266-6.9023-1.9902-0.92385 0.16562-1.8146 0.50701-2.6133 1 1.0723 0.13117 2.0672 0.78832 2.6094 1.7227s0.61928 2.125 0.20118 3.1211c-0.41811 0.99608-1.3225 1.7736-2.3691 2.041-1.0466 0.26741-2.212 0.01721-3.0566-0.65625-0.82402-0.65702-1.316-1.6614-1.5391-2.6914-0.42974-1.9843 0.0509-4.0479-0.0762-6.0742-0.12031-1.919-0.79903-3.7961-1.9102-5.3652-1.1111-1.5692-2.6499-2.8289-4.3965-3.6328-1.4443-0.6648-3.025-1.0173-4.6152-1.0645zm-20.908 52.555-2.9277 31.793c2.1313 1.1276 4.4573 1.884 6.8438 2.2285 2.13 0.30745 4.334 0.28363 6.3984-0.32422 2.0644-0.60785 3.9833-1.8314 5.2129-3.5977 0.62909-0.9037 1.0654-1.9239 1.5391-2.918s0.99916-1.9828 1.7676-2.7715c1.0136-1.0404 2.4335-1.6754 3.8848-1.7363 1.4512-0.06096 2.9183 0.45263 4.0156 1.4043 1.0973 0.95167 1.814 2.3321 1.959 3.7773 0.14495 1.4453-0.28343 2.9392-1.1699 4.0898 2.2022-0.14989 4.3711-0.78454 6.3066-1.8457 2.6944-1.4772 4.9247-3.7877 6.3047-6.5332s1.9025-5.9133 1.4805-8.957c-0.42203-3.0437-1.7883-5.9503-3.8633-8.2168-2.075-2.2665-4.849-3.8819-7.8438-4.5703z" fill="url(#linearGradient1197)" stop-color="#000000" style="font-variation-settings:normal"/>
  </clipPath>
  <filter id="filter1187" x="-.16492" y="-.048536" width="1.3298" height="1.0971" color-interpolation-filters="sRGB">
   <feGaussianBlur stdDeviation="1.9666443"/>
  </filter>
  <linearGradient id="linearGradient1368" x1="202.81" x2="205.91" y1="6.9637" y2="1.5946" gradientUnits="userSpaceOnUse" xlink:href="#linearGradient1252"/>
  <linearGradient id="linearGradient1370" x1="193.52" x2="185.21" y1="15.996" y2="24.308" gradientUnits="userSpaceOnUse" xlink:href="#linearGradient1252"/>
  <clipPath id="clipPath1444-9">
   <path d="m762.92-6.6016c-0.53007-0.015727-1.0605 0.00271-1.5879 0.054687-2.1097 0.20792-4.1567 0.94802-5.9453 2.0859-1.7882 1.1376-3.3234 2.6727-4.4609 4.4609l9.8437 31.299 20.916-2.0762c3.2728-0.938 6.1606-3.1575 7.9102-6.0781s2.3422-6.5137 1.625-9.8418c-0.52097-2.4175-1.7437-4.7185-3.6328-6.3145-1.8892-1.5959-4.4681-2.4266-6.9023-1.9902-0.92385 0.16562-1.8146 0.50701-2.6133 1 1.0723 0.13117 2.0672 0.78832 2.6094 1.7227s0.61928 2.125 0.20118 3.1211c-0.41811 0.99608-1.3225 1.7736-2.3691 2.041-1.0466 0.26741-2.212 0.01721-3.0566-0.65625-0.82402-0.65702-1.316-1.6614-1.5391-2.6914-0.42974-1.9843 0.0509-4.0479-0.0762-6.0742-0.12031-1.919-0.79903-3.7961-1.9102-5.3652-1.1111-1.5692-2.6499-2.8289-4.3965-3.6328-1.4443-0.6648-3.025-1.0173-4.6152-1.0645zm-31.857 1.4004c-0.59318 0.018305-1.1823 0.11762-1.748 0.29688-1.1316 0.35851-2.16 1.0369-2.9356 1.9355s-1.2972 2.0137-1.4863 3.1855c-0.15651 0.96943-0.0897 1.9638-0.21679 2.9375-0.12444 0.95301-0.44477 1.897-1.0391 2.6523-0.59429 0.75533-1.4826 1.3046-2.4414 1.3711-0.90996 0.063072-1.7978-0.29991-2.582-0.76562-0.78429-0.46571-1.5028-1.041-2.3106-1.4648-1.2466-0.6541-2.6704-0.9283-4.0781-0.92383-3.5522 0.011272-7.0577 1.8733-9.0234 4.832-0.98288 1.4794-1.5903 3.2071-1.7442 4.9766-0.15384 1.7694 0.14844 3.5768 0.8711 5.1992 0.60986 1.3692 1.5161 2.6047 2.6406 3.5957l22.916 9.2383 13.756-13.922-5.7637-21.205c-0.82947-0.84908-1.8973-1.4639-3.0488-1.752-0.57575-0.14403-1.1724-0.2058-1.7656-0.1875zm-9.0352 42.596-16.057 8.4453c-1.8156 0.72158-3.3536 2.1194-4.2422 3.8594-1.0947 2.1435-1.1781 4.7446-0.38086 7.0156 0.43971 1.2526 1.1426 2.4219 2.1035 3.3379 0.96086 0.91595 2.1863 1.5698 3.498 1.7734 0.87545 0.13588 1.7666 0.07242 2.6524 0.05469s1.7937 0.01454 2.623 0.32617c0.86438 0.32482 1.6035 0.94625 2.1211 1.7109s0.81876 1.6666 0.92382 2.584c0.22335 1.9502-0.4141 3.9232-0.1875 5.873 0.20203 1.7384 1.0807 3.3336 2.1504 4.7188 2.5097 3.2498 6.1861 5.5771 10.197 6.4551 4.0112 0.87794 8.3251 0.3008 11.963-1.6035 1.3384-0.70061 2.5787-1.5824 3.6934-2.6016 0.93314 0.27017 1.8803 0.49207 2.8418 0.63086 2.13 0.30745 4.334 0.28363 6.3984-0.32422 2.0644-0.60785 3.9833-1.8314 5.2129-3.5977 0.62909-0.9037 1.0654-1.9239 1.5391-2.918s0.99916-1.9828 1.7676-2.7715c1.0136-1.0404 2.4335-1.6754 3.8848-1.7363 1.4512-0.06096 2.9183 0.45263 4.0156 1.4043 1.0973 0.95167 1.814 2.3321 1.959 3.7773 0.14495 1.4453-0.28343 2.9392-1.1699 4.0898 2.2022-0.14989 4.3711-0.78454 6.3066-1.8457 2.6944-1.4772 4.9247-3.7877 6.3047-6.5332s1.9025-5.9133 1.4805-8.957c-0.42203-3.0437-1.7883-5.9503-3.8633-8.2168-2.075-2.2665-4.849-3.8819-7.8438-4.5703l-29.908-1.8223-0.8125 8.8203z" fill="url(#linearGradient1448)" stop-color="#000000" style="font-variation-settings:normal"/>
  </clipPath>
  <filter id="filter1420" x="-.065713" y="-.09343" width="1.1314" height="1.1869" color-interpolation-filters="sRGB">
   <feGaussianBlur stdDeviation="2.9614319"/>
  </filter>
  <linearGradient id="linearGradient1372" x1="190.57" x2="186.26" y1="13.051" y2="5.5875" gradientUnits="userSpaceOnUse" xlink:href="#linearGradient1061"/>
  <linearGradient id="linearGradient1061">
   <stop stop-color="#420f82" offset="0"/>
   <stop stop-color="#43a2eb" offset="1"/>
  </linearGradient>
  <linearGradient id="linearGradient1374" x1="187.03" x2="190.48" y1="6.0252" y2="11.993" gradientUnits="userSpaceOnUse" xlink:href="#linearGradient1202"/>
  <linearGradient id="linearGradient1202">
   <stop stop-color="#99e4f3" offset="0"/>
   <stop stop-color="#187fce" offset="1"/>
  </linearGradient>
  <linearGradient id="linearGradient1376" x1="187.04" x2="189.69" y1="4.1389" y2="8.7276" gradientUnits="userSpaceOnUse" xlink:href="#linearGradient1202"/>
  <linearGradient id="linearGradient1378" x1="192.58" x2="192.58" y1="8.4308" y2="2.9963" gradientTransform="scale(3.7795)" gradientUnits="userSpaceOnUse" xlink:href="#linearGradient1061"/>
  <linearGradient id="linearGradient1380" x1="194.97" x2="194.97" y1="3.9718" y2="10.258" gradientUnits="userSpaceOnUse" xlink:href="#linearGradient1093"/>
  <linearGradient id="linearGradient1093">
   <stop stop-color="#3e0a91" offset="0"/>
   <stop stop-color="#20043b" offset="1"/>
  </linearGradient>
  <linearGradient id="linearGradient1382" x1="200.26" x2="197.03" y1="5.0325" y2="15.324" gradientUnits="userSpaceOnUse" xlink:href="#linearGradient1061"/>
  <linearGradient id="linearGradient1384" x1="200.6" x2="200.6" y1=".20031" y2="3.5722" gradientUnits="userSpaceOnUse" xlink:href="#linearGradient1093"/>
  <linearGradient id="linearGradient1386" x1="197.72" x2="197.72" y1="-.07723" y2="8.6473" gradientUnits="userSpaceOnUse" xlink:href="#linearGradient1093"/>
  <linearGradient id="linearGradient1388" x1="199.55" x2="201.95" y1="12.656" y2="3.7097" gradientUnits="userSpaceOnUse" xlink:href="#linearGradient1061"/>
  <linearGradient id="linearGradient1390" x1="200.97" x2="204.63" y1="10.191" y2="3.8499" gradientUnits="userSpaceOnUse" xlink:href="#linearGradient1061"/>
  <linearGradient id="linearGradient1392" x1="203.96" x2="209.75" y1="6.9599" y2="16.993" gradientUnits="userSpaceOnUse" xlink:href="#linearGradient1061"/>
  <linearGradient id="linearGradient1394" x1="196.79" x2="196.79" y1="5.076" y2="12.929" gradientUnits="userSpaceOnUse" xlink:href="#linearGradient1093"/>
  <linearGradient id="linearGradient1396" x1="201.44" x2="201.44" y1="9.3574" y2="1.0579" gradientUnits="userSpaceOnUse" xlink:href="#linearGradient1061"/>
  <linearGradient id="linearGradient1398" x1="202.87" x2="202.87" y1="6.1261" y2="2.0094" gradientUnits="userSpaceOnUse" xlink:href="#linearGradient1061"/>
  <linearGradient id="linearGradient1400" x1="201.86" x2="201.86" y1="2.1163" y2="6.0468" gradientUnits="userSpaceOnUse" xlink:href="#linearGradient1061"/>
  <linearGradient id="linearGradient1402" x1="198.69" x2="198.69" y1=".10217" y2="9.1154" gradientUnits="userSpaceOnUse" xlink:href="#linearGradient1061"/>
  <linearGradient id="linearGradient1404" x1="201.87" x2="205.73" y1="6.0347" y2="12.722" gradientUnits="userSpaceOnUse" xlink:href="#linearGradient1202"/>
  <linearGradient id="linearGradient1406" x1="201.52" x2="205.83" y1="3.1904" y2="10.651" gradientUnits="userSpaceOnUse" xlink:href="#linearGradient1202"/>
  <linearGradient id="linearGradient1408" x1="197.92" x2="191.51" y1="16.131" y2="5.034" gradientUnits="userSpaceOnUse" xlink:href="#linearGradient1061"/>
  <linearGradient id="linearGradient1410" x1="198.52" x2="196.3" y1="7.8977" y2="10.119" gradientUnits="userSpaceOnUse" xlink:href="#linearGradient1202"/>
  <linearGradient id="linearGradient1412" x1="195.57" x2="189.4" y1="12.199" y2="18.374" gradientUnits="userSpaceOnUse" xlink:href="#linearGradient1061"/>
  <linearGradient id="linearGradient1414" x1="191.81" x2="193.83" y1="12.879" y2="16.39" gradientUnits="userSpaceOnUse" xlink:href="#linearGradient1093"/>
  <linearGradient id="linearGradient1416" x1="200.61" x2="201.31" y1="23.232" y2="18.617" gradientUnits="userSpaceOnUse" xlink:href="#linearGradient1316"/>
  <linearGradient id="linearGradient1418" x1="204.58" x2="203.13" y1="-2.6853" y2=".24213" gradientUnits="userSpaceOnUse" xlink:href="#linearGradient1316"/>
  <linearGradient id="linearGradient1420" x1="738.73" x2="728.31" y1="59.927" y2="49.502" gradientUnits="userSpaceOnUse" xlink:href="#linearGradient1316"/>
 </defs>
 <metadata>
  <rdf:RDF>
   <cc:Work rdf:about="">
    <dc:format>image/svg+xml</dc:format>
    <dc:type rdf:resource="http://purl.org/dc/dcmitype/StillImage"/>
    <dc:title/>
   </cc:Work>
  </rdf:RDF>
 </metadata>
 <g transform="translate(-137.12 25.914)">
  <g transform="translate(-44.377 -19.518)">
   <g>
    <path transform="scale(.26458)" d="m739.95-24.174a5.0005 5.0005 0 0 0-4.7344 3.6484l-0.97265 3.4707-3.1934 1.6758a5.0005 5.0005 0 0 0-2.541 5.5879c-0.23357 0.05825-0.4761 0.047937-0.70703 0.12109-2.0313 0.6436-3.8202 1.8221-5.2109 3.4336-1.3878 1.608-2.2966 3.5495-2.6367 5.6562-0.16629 1.0291-0.1301 1.3101-0.14257 1.8457-0.40366-0.26903-0.54539-0.40815-1.1895-0.74609-2.1245-1.1148-4.3483-1.5027-6.416-1.4961-5.289 0.016785-10.225 2.629-13.172 7.0645-1.4504 2.1831-2.3327 4.6895-2.5605 7.3105-0.22829 2.6252 0.20978 5.2582 1.2832 7.668 0.27742 0.62272 0.66678 1.1799 1.0215 1.7578l-11.918 17.465a5.0005 5.0005 0 0 0-0.53907 4.6035l0.0274 0.06641a5.0005 5.0005 0 0 0 0.043 0.10742c1.6292 3.9822 5.2855 6.7121 9.5059 7.3242-0.17574 2.0308 0.0616 4.0695 0.73243 5.9805 0.6692 1.9063 1.7533 3.7587 3.3711 5.3008 1.6374 1.5608 3.731 2.7156 6.1797 3.0957 1.6168 0.25092 2.8054 0.12562 3.5195 0.11133 0.50022-0.0098 0.50468 0.0059 0.54883 0.0059 0.0227 0.06138 0.0399 0.07273 0.0527 0.18555 0.0575 0.50309-0.58291 2.4808-0.1875 5.8828 0.35339 3.0413 1.765 5.3907 3.1602 7.1973 3.2477 4.2054 7.8952 7.1471 13.086 8.2832 5.1897 1.1359 10.641 0.40647 15.35-2.0586 0.88234-0.46188 1.6044-1.1251 2.4062-1.6934 0.37418 0.07344 0.70702 0.18606 1.0957 0.24219 0.74517 0.10756 1.5124 0.046 2.2695 0.07813l0.64453 3.791a5.0005 5.0005 0 0 0 8.0332 3.0801l3.3242-2.6309 4.1934 0.61719a5.0005 5.0005 0 0 0 5.4141-6.6855l-0.11523-0.30859a5.0005 5.0005 0 0 0 0.89844 0.02148c2.9343-0.19971 5.7898-1.0351 8.3691-2.4492 3.6017-1.9746 6.5239-5.0007 8.3691-8.6719 1.8456-3.6719 2.5288-7.8234 1.9648-11.891-0.16365-1.1794-0.64039-2.2639-1.0039-3.3867 2.1888-0.29458 4.2039-1.4202 5.3164-3.3633l2e-3 -0.0039 9.5156-16.609a5.0005 5.0005 0 0 0 0-2e-3c2.1968-3.8353 2.3226-8.5333 0.33398-12.48a5.0005 5.0005 0 0 0-4.5098-2.8145l-2.4883 0.0078c0.82446-2.9049 1.0116-5.9734 0.36523-8.9727-0.72283-3.3537-2.4084-6.6435-5.295-9.082-2.9286-2.474-6.8347-3.8024-10.926-3.0977a5.0005 5.0005 0 0 0-0.30078-1.3828l-0.60742-1.6348 0.77343-1.5605a5.0005 5.0005 0 0 0-4.6855-7.2148l-1.7402 0.07226-1.248-1.2188a5.0005 5.0005 0 0 0-6.4277-0.4707l-0.55664-1.9844a5.0005 5.0005 0 0 0-8.3086-2.2266l-1.8867 1.8438a5.0005 5.0005 0 0 0-5.1914-4.6719l-3.6055 0.14648-2.5781-2.5195a5.0005 5.0005 0 0 0-3.5742-1.4219z" color="#000000" color-rendering="auto" dominant-baseline="auto" fill="#fff" image-rendering="auto" shape-rendering="auto" solid-color="#000000" stop-color="#000000" style="font-feature-settings:normal;font-variant-alternates:normal;font-variant-caps:normal;font-variant-east-asian:normal;font-variant-ligatures:normal;font-variant-numeric:normal;font-variant-position:normal;font-variation-settings:normal;inline-size:0;isolation:auto;mix-blend-mode:normal;paint-order:stroke markers fill;shape-margin:0;shape-padding:0;text-decoration-color:#000000;text-decoration-line:none;text-decoration-style:solid;text-indent:0;text-orientation:mixed;text-transform:none;white-space:normal"/>
    <path d="m204.24 12.64c0.79235 0.18214 1.5264 0.60999 2.0754 1.2097 0.54899 0.59967 0.91054 1.3686 1.0222 2.1739s-0.0271 1.6436-0.39218 2.37c-0.36513 0.72642-0.95509 1.3378-1.668 1.7287-0.51211 0.28077-1.0857 0.44865-1.6684 0.48831 0.23455-0.30444 0.34753-0.69996 0.30918-1.0824-0.0383-0.3824-0.22763-0.7476-0.51796-0.9994-0.29034-0.2518-0.67865-0.38751-1.0626-0.37138-0.38397 0.01613-0.75953 0.18393-1.0277 0.45919-0.20331 0.20866-0.34231 0.47058-0.46762 0.73358s-0.24082 0.53294-0.40727 0.77205c-0.32532 0.46732-0.83325 0.79063-1.3795 0.95146-0.54622 0.16083-1.1293 0.16756-1.6928 0.08621-0.63143-0.09114-1.2469-0.2917-1.8108-0.59004l0.77485-8.4119" fill="url(#linearGradient1353)" stop-color="#000000" style="font-variation-settings:normal"/>
    <path d="m186.79 12.128c-0.48038 0.19092-0.88708 0.56111-1.1222 1.0215-0.28964 0.56714-0.31164 1.2551-0.1007 1.8559 0.11634 0.3314 0.30216 0.64096 0.55639 0.88331 0.25423 0.24235 0.57839 0.4152 0.92547 0.46907 0.23163 0.03595 0.46766 0.01932 0.70202 0.01463 0.23435-0.0047 0.4741 0.0036 0.69352 0.08608 0.2287 0.08594 0.42446 0.2507 0.56141 0.45302 0.13695 0.20232 0.21647 0.44083 0.24427 0.68356 0.0591 0.516-0.10956 1.0381-0.0496 1.554 0.0534 0.45994 0.28592 0.88195 0.56893 1.2484 0.66403 0.85986 1.637 1.4758 2.6983 1.7081 1.0613 0.23229 2.2026 0.07913 3.1652-0.42472 0.96251-0.50385 1.7387-1.3545 2.1526-2.359 0.41385-1.0045 0.46215-2.1551 0.13392-3.1907l-6.8811-6.2375" clip-path="url(#clipPath1482-2)" fill="#080a16" filter="url(#filter1516)" stop-color="#000000" style="font-variation-settings:normal"/>
    <path transform="rotate(30 182.04 66.273)" d="m163.61-3.8818 1.0905 1.0659 1.5237-0.062448-0.67679 1.3665 0.53024 1.4298-1.5088-0.22137-1.196 0.94611-0.25571-1.5034-1.2694-0.84507 1.3508-0.70775z" fill="url(#linearGradient1355)" style="paint-order:stroke markers fill"/>
    <path d="m186.52 5.9868c-0.29753-0.26221-0.53774-0.58911-0.6991-0.95138-0.1912-0.42927-0.27069-0.90755-0.22999-1.3757s0.20138-0.92523 0.46143-1.3166c0.52011-0.78283 1.4472-1.2755 2.387-1.2785 0.37247-0.00118 0.74921 0.071516 1.079 0.24458 0.2137 0.11213 0.40398 0.26387 0.61149 0.38709 0.20751 0.12322 0.44259 0.21947 0.68335 0.20278 0.25368-0.017583 0.48868-0.163 0.64592-0.36284 0.15724-0.19985 0.24193-0.44965 0.27485-0.7018 0.0336-0.25763 0.0161-0.52041 0.0575-0.7769 0.05-0.31004 0.1877-0.60546 0.3929-0.84321 0.20519-0.23776 0.4773-0.41713 0.77669-0.51198s0.62515-0.10491 0.92982-0.028693c0.30467 0.076216 0.58732 0.23847 0.80678 0.46312l1.525 5.6109-3.6399 3.6831" fill="url(#linearGradient1357)" stop-color="#000000" style="font-variation-settings:normal"/>
    <path d="m195.8-5.0737 1.0905 1.0659 1.5237-0.062448-0.67679 1.3665 0.53024 1.4298-1.5088-0.22137-1.196 0.94611-0.25571-1.5034-1.2694-0.84507 1.3508-0.70775z" fill="url(#linearGradient1359)" style="paint-order:stroke markers fill"/>
    <path d="m188.98 6.5222c-0.2185-0.20562-0.38237-0.46876-0.47053-0.75555-0.0882-0.28679-0.10039-0.59655-0.0351-0.8894 0.0989-0.44365 0.38171-0.84591 0.77278-1.0776s0.88591-0.28556 1.3133-0.13092c0.27251 0.098588 0.51056 0.27424 0.7769 0.38845 0.49832 0.21369 1.0908 0.19478 1.5745-0.050255 0.48368-0.24503 0.84943-0.7116 0.97191-1.2398l0.0586 5.2399-3.0616 0.33139" fill="url(#linearGradient1361)" stop-color="#000000" style="font-variation-settings:normal"/>
    <path d="m186.79 12.128c-0.48038 0.19092-0.88708 0.56111-1.1222 1.0215-0.28964 0.56714-0.31164 1.2551-0.1007 1.8559 0.11634 0.3314 0.30216 0.64096 0.55639 0.88331 0.25423 0.24235 0.57839 0.4152 0.92547 0.46907 0.23163 0.03595 0.46766 0.01932 0.70202 0.01463 0.23435-0.0047 0.4741 0.0036 0.69352 0.08608 0.2287 0.08594 0.42446 0.2507 0.56141 0.45302 0.13695 0.20232 0.21647 0.44083 0.24427 0.68356 0.0591 0.516-0.10956 1.0381-0.0496 1.554 0.0534 0.45994 0.28592 0.88195 0.56893 1.2484 0.66403 0.85986 1.637 1.4758 2.6983 1.7081 1.0613 0.23229 2.2026 0.07913 3.1652-0.42472 0.96251-0.50385 1.7387-1.3545 2.1526-2.359 0.41385-1.0045 0.46215-2.1551 0.13392-3.1907l-6.8811-6.2375" fill="url(#linearGradient1363)" stop-color="#000000" style="font-variation-settings:normal"/>
    <path d="m206.82 7.7316c0.86592-0.24818 1.6299-0.83513 2.0928-1.6079s0.61993-1.7233 0.43017-2.6038c-0.13784-0.63964-0.46168-1.2486-0.96152-1.6709-0.49984-0.42225-1.1819-0.64201-1.8259-0.52654-0.24443 0.04382-0.48046 0.13407-0.69178 0.2645 0.28371 0.034704 0.54705 0.2085 0.69051 0.45571 0.14347 0.24721 0.16371 0.56208 0.0531 0.82563-0.11063 0.26355-0.34954 0.46963-0.62647 0.54039-0.27693 0.070751-0.58542 0.00452-0.8089-0.17367-0.21802-0.17384-0.34791-0.4396-0.40693-0.71212-0.1137-0.52501 0.0132-1.0712-0.0204-1.6074-0.0318-0.50773-0.21121-1.0044-0.5052-1.4195s-0.70108-0.74827-1.1632-0.96098c-0.50951-0.23453-1.0833-0.32234-1.6415-0.26733-0.55819 0.055013-1.1 0.25111-1.5733 0.55218-0.47313 0.301-0.87907 0.70695-1.18 1.1801l2.6043 8.281" fill="url(#linearGradient1366)" stop-color="#000000" style="font-variation-settings:normal"/>
    <path transform="scale(.26458)" d="m768.58-9.293-1.0527 3.7559-3.4551 1.8105 3.248 2.1621 0.6543 3.8457 3.0586-2.4199 3.8613 0.56641-1.3574-3.6582 1.7305-3.4961-3.8965 0.16016zm2.3594 13.521-2.2441 1.4199-2.5723-0.6582 0.65821 2.5742-1.4219 2.2441 2.6504 0.16797 1.6953 2.0469 0.98047-2.4688 2.4688-0.98047-2.0449-1.6953zm-12.164 43.953-1.7988 1.9551-2.6562 0.0293 1.3027 2.3145-0.79297 2.5371 2.6035-0.52344 2.168 1.5371 0.30664-2.6387 2.1309-1.5859-2.4141-1.1074zm5.3613 10.104-3.4004 1.9121-3.7246-1.1641 0.76758 3.8262-2.2559 3.1816 3.873 0.45117 2.3301 3.1309 1.627-3.5469 3.6953-1.248-2.8691-2.6426zm-10.094 10.682-1.7266 6.1621-5.668 2.9688 5.3262 3.5469 1.0742 6.3086 5.0176-3.9707 6.3301 0.92969-2.2246-6 2.8398-5.7344-6.3926 0.26172z" clip-path="url(#clipPath1191-8)" fill="#0b0115" filter="url(#filter1187)" style="paint-order:stroke markers fill"/>
    <path d="m206.4 7.9219c0.29368-0.25613 0.46019-0.65157 0.43818-1.0406-0.022-0.38906-0.23206-0.76319-0.55275-0.98457-0.31426-0.21693-0.70532-0.28256-1.082-0.34532-0.37667-0.062757-0.76785-0.13422-1.0761-0.35965-0.28081-0.20538-0.46212-0.5167-0.62666-0.82322-0.16455-0.30653-0.32573-0.62461-0.58185-0.86006-0.18303-0.16826-0.41041-0.28784-0.65276-0.34329-0.24235-0.055453-0.4991-0.046648-0.73709 0.025278l0.17156 5.6353" fill="url(#linearGradient1368)" stop-color="#000000" style="font-variation-settings:normal"/>
    <path d="m195.47 16.366c0.20849 0.27937 0.34164 0.61442 0.38178 0.96069 0.0401 0.34627-0.0128 0.7029-0.15188 1.0226-0.22705 0.52196-0.68892 0.93636-1.2324 1.1057s-1.159 0.09063-1.6423-0.20998c-0.48336-0.30061-0.82611-0.81788-0.91454-1.3802-0.0884-0.5623 0.079-1.1598 0.44678-1.5943" fill="url(#linearGradient1370)" stop-color="#000000" style="font-variation-settings:normal"/>
    <path transform="scale(.26458)" d="m737.21-6.9609c-3.1534 0-5.7319 6.2632-6.0606 14.355a4.0374 4.0374 0 0 0-3.7383 2.5508l-5.5312 13.957-16.918-1.2754-13.975 20.48 0.0254 0.06641a7.1209 7.1209 0 0 0 6.0547 4.4043l20.373 1.5352c-0.73683 1.7309-1.1445 3.6385-1.1445 5.6445 0 7.9529 6.4007 14.354 14.354 14.354 5.7752 0 10.72-3.3829 13.002-8.2773l4.377 0.13477 8.002-10.818a7.1209 7.1209 0 0 0 4.5938 1.6621l26.055-0.08594a2.1601 2.1601 0 0 0 1.8672-1.0879l9.5176-16.613a8.1797 8.1797 0 0 0 0.20703-7.7461l-0.0293-0.06445-31.643 0.10547 0.48242-9.2988-3.4609-0.22656c0.50937-1.3569 0.82617-3.219 0.82617-5.291 0-4.1727-1.272-7.5312-2.8516-7.5312h-4.959c-0.81283-6.3666-3.0824-10.934-5.7734-10.934z" clip-path="url(#clipPath1444-9)" fill="#090a18" filter="url(#filter1420)" stop-color="#000000" style="font-variation-settings:normal"/>
    <path d="m194.89 6.6174-2.2469 0.89194-5.6694-0.42742-2.5063 3.6729-1.6395 0.65063 7e-3 0.01762a1.8841 1.8841 0 0 0 1.6021 1.165l6.8741 0.51825a0.57152 0.57152 0 0 0 0.51515-0.24774l2.8553-4.1845a2.1642 2.1642 0 0 0 0.21536-2.0391z" fill="url(#linearGradient1372)" stop-color="#000000" style="font-variation-settings:normal"/>
    <path d="m186.52 5.9868-3.6977 5.4187 8.3644 0.6306 3.6977-5.4187z" fill="url(#linearGradient1374)" stop-color="#000000" style="font-variation-settings:normal"/>
    <path d="m188.98 6.5222c-0.0973-0.010571-0.19257 0.033486-0.24754 0.11452l-0.99966 1.4643a1.1217 1.1217 0 0 1-1.0109 0.48607l-1.2398-0.093471c-0.14567-0.011552-0.27312 0.097168-0.28467 0.24284-0.0113 0.1465 0.0983 0.27436 0.24489 0.28483l0.93475 0.07047a0.37366 0.37366 0 0 1 0.28044 0.58342l-0.86218 1.2627c-0.0824 0.12098-0.051 0.28592 0.0702 0.36806 0.12047 0.08233 0.28483 0.0516 0.36742-0.06869l1.0347-1.5161a1.1213 1.1213 0 0 1 1.0104-0.48611l0.63897 0.04821a0.37366 0.37366 0 0 1 0.28043 0.58342l-0.86218 1.2627c-0.0824 0.12098-0.051 0.28592 0.0702 0.36806 0.12047 0.08233 0.28484 0.0516 0.36742-0.06869l1.0342-1.5161a1.121 1.121 0 0 1 1.0104-0.4861l1.4532 0.10955c0.14647 0.01166 0.27436-0.09834 0.28484-0.2449 0.0102-0.14577-0.0993-0.27236-0.24506-0.28277l-1.1486-0.086595a0.37385 0.37385 0 0 1-0.28094-0.58346l0.8273-1.2125c0.0828-0.12041 0.0523-0.28511-0.0681-0.3679-0.0363-0.024723-0.0783-0.040003-0.12205-0.044441-0.0967-0.00975-0.19092 0.034277-0.24549 0.11468l-0.99967 1.4643a1.1217 1.1217 0 0 1-1.0109 0.48607l-0.6395-0.048209a0.37385 0.37385 0 0 1-0.28093-0.5835l0.8273-1.2125c0.0827-0.12055 0.0519-0.28532-0.0686-0.36794-0.0357-0.024352-0.077-0.03956-0.12001-0.044287z" color="#000000" color-rendering="auto" dominant-baseline="auto" fill="url(#linearGradient1376)" image-rendering="auto" shape-rendering="auto" solid-color="#000000" stop-color="#000000" style="font-feature-settings:normal;font-variant-alternates:normal;font-variant-caps:normal;font-variant-east-asian:normal;font-variant-ligatures:normal;font-variant-numeric:normal;font-variant-position:normal;font-variation-settings:normal;inline-size:0;isolation:auto;mix-blend-mode:normal;shape-margin:0;shape-padding:0;text-decoration-color:#000000;text-decoration-line:none;text-decoration-style:solid;text-indent:0;text-orientation:mixed;text-transform:none;white-space:normal"/>
    <path transform="scale(.26458)" d="m731.17 7.3945a4.0374 4.0374 0 0 0-3.752 2.5508l-6.9844 17.623c-0.41816 2.0794-0.36112 4.2536 0.16406 6.3086 0.7487 2.9296 2.4632 5.6023 4.8125 7.5059l10.322-2.6738 4.9297-6.791-6.6328-24.523z" fill="url(#linearGradient1378)" stop-color="#000000" style="font-variation-settings:normal"/>
    <path d="m193.88 2.7671-1.2964 4.8381 3.095-0.8293" fill="url(#linearGradient1380)" stop-color="#000000" style="font-variation-settings:normal"/>
    <path d="m191.63 7.8305 6.781-3.6243 4.5446 0.29716-4.6679 6.5482" fill="url(#linearGradient1382)" stop-color="#000000" style="font-variation-settings:normal"/>
    <path d="m197.89 1.051h3.6121l0.0335 3.9838-3.7162-0.00664" fill="url(#linearGradient1384)" stop-color="#000000" style="font-variation-settings:normal"/>
    <path d="m195.05-1.8417c-0.89365 0-1.6133 1.9005-1.6133 4.2612 0 2.3211 0.69617 4.1931 1.5689 4.2556v0.00465h0.032c4e-3 8.31e-5 8e-3 0.00155 0.0124 0.00155 4e-3 0 9e-3 -0.00146 0.0129-0.00155l3.7383-0.014469-0.13901-8.507z" fill="url(#linearGradient1386)" style="paint-order:stroke markers fill"/>
    <path d="m198.52 7.8977 4.4361-3.3943-0.26886 5.1755-4.7722 6.4526-1.9492-3.764" fill="url(#linearGradient1388)" stop-color="#000000" style="font-variation-settings:normal"/>
    <path d="m199.35 8.4884-0.15826 3.5536 1.554 0.02972 1.9461-2.3928c-0.43564 0.074917-0.90113-0.045164-1.2462-0.32147-0.3404-0.27259-0.55831-0.69271-0.58507-1.128l0.0417-1.042-1.5524 1.301z" fill="url(#linearGradient1390)" stop-color="#000000" style="font-variation-settings:normal"/>
    <path d="m211.2 6.936-2.17 1.0655-5.6854 0.018757-2.2104 3.8582-1.5834 0.77728 8e-3 0.01699a1.8841 1.8841 0 0 0 1.6886 1.0357l6.8936-0.02274a0.57152 0.57152 0 0 0 0.49413-0.2874l2.5182-4.3957a2.1642 2.1642 0 0 0 0.0547-2.0497z" fill="url(#linearGradient1392)" stop-color="#000000" style="font-variation-settings:normal"/>
    <path d="m191.63 7.8305 0.80656 8.1329 5.478 0.16804 0.60493-8.2337" fill="url(#linearGradient1394)" stop-color="#000000" style="font-variation-settings:normal"/>
    <rect x="197.05" y="-1.8416" width="3.2262" height="8.5226" rx="1.6131" ry="4.2613" fill="url(#linearGradient1396)" style="paint-order:stroke markers fill"/>
    <rect x="200.75" y="1.051" width="1.5087" height="3.9857" rx=".75437" ry="1.9928" fill="url(#linearGradient1398)" style="paint-order:stroke markers fill"/>
    <rect x="201.16" y="2.1163" width=".70216" height="1.8549" rx=".35108" ry=".92746" fill="url(#linearGradient1400)" style="paint-order:stroke markers fill"/>
    <rect x="197.72" y="-.07723" width="1.8904" height="4.9939" rx=".94519" ry="2.4969" fill="url(#linearGradient1402)" style="paint-order:stroke markers fill"/>
    <path d="m202.81 6.9637-3.2611 5.6921 8.3881-0.02767 3.2611-5.6921z" fill="url(#linearGradient1404)" stop-color="#000000" style="font-variation-settings:normal"/>
    <path d="m205.3 7.3048c-0.0979-0.0029-0.18934 0.048492-0.23778 0.13359l-0.88169 1.5382a1.1217 1.1217 0 0 1-0.96967 0.56389l-1.2433 0.0041c-0.14612-8.92e-5 -0.26465 0.1183-0.26474 0.26442-9e-5 0.14693 0.11956 0.2658 0.26649 0.26474l0.9374-0.0031a0.37366 0.37366 0 0 1 0.32535 0.55962l-0.76044 1.3265c-0.0727 0.12708-0.0287 0.28902 0.0989 0.36141 0.12655 0.07263 0.28801 0.02908 0.36089-0.09731l0.91253-1.5926a1.1213 1.1213 0 0 1 0.96915-0.56389l0.64079-0.0021a0.37366 0.37366 0 0 1 0.32533 0.55962l-0.76043 1.3265c-0.0727 0.12708-0.0287 0.28902 0.0989 0.36141 0.12656 0.07263 0.28801 0.02908 0.36091-0.09731l0.912-1.5926a1.121 1.121 0 0 1 0.96915-0.56389l1.4573-0.0048c0.14692 9.1e-5 0.26579-0.11956 0.26473-0.26649-1e-3 -0.14613-0.12036-0.26373-0.26648-0.26267l-1.1519 0.0038a0.37385 0.37385 0 0 1-0.32588-0.55962l0.72961-1.2737c0.0731-0.12653 0.0296-0.28835-0.0968-0.36142-0.0382-0.021798-0.0812-0.033735-0.12517-0.034727-0.0971-0.00213-0.18763 0.049153-0.23573 0.13359l-0.88168 1.5382a1.1217 1.1217 0 0 1-0.96966 0.56388l-0.6413 0.00212a0.37385 0.37385 0 0 1-0.32585-0.55962l0.7296-1.2737c0.0729-0.12667 0.0296-0.28849-0.0973-0.36142-0.0376-0.021475-0.0798-0.033402-0.12311-0.034734z" color="#000000" color-rendering="auto" dominant-baseline="auto" fill="url(#linearGradient1406)" image-rendering="auto" shape-rendering="auto" solid-color="#000000" stop-color="#000000" style="font-feature-settings:normal;font-variant-alternates:normal;font-variant-caps:normal;font-variant-east-asian:normal;font-variant-ligatures:normal;font-variant-numeric:normal;font-variant-position:normal;font-variation-settings:normal;inline-size:0;isolation:auto;mix-blend-mode:normal;shape-margin:0;shape-padding:0;text-decoration-color:#000000;text-decoration-line:none;text-decoration-style:solid;text-indent:0;text-orientation:mixed;text-transform:none;white-space:normal"/>
    <rect x="191.8" y="10.242" width="5.7245" height="5.7245" rx="2.8622" ry="2.8622" fill="url(#linearGradient1408)" style="paint-order:stroke markers fill"/>
    <rect x="195.97" y="8.4452" width="1.8991" height="1.8991" rx=".94954" ry=".94954" fill="url(#linearGradient1410)" style="paint-order:stroke markers fill"/>
    <rect x="189.52" y="10.69" width="7.5964" height="7.5964" rx="3.7982" ry="3.7982" fill="url(#linearGradient1412)" style="paint-order:stroke markers fill"/>
    <rect x="191.11" y="12.199" width="4.463" height="4.463" rx="2.2315" ry="2.2315" fill="url(#linearGradient1414)" style="paint-order:stroke markers fill"/>
    <path d="m199.51 18.248 1.2107 1.1834 1.6915-0.06933-0.75135 1.5171 0.58865 1.5873-1.675-0.24576-1.3277 1.0503-0.28387-1.669-1.4092-0.93817 1.4996-0.78573z" fill="url(#linearGradient1416)" style="paint-order:stroke markers fill"/>
   </g>
   <g fill="#fff">
    <path transform="rotate(45 183.14 59.298)" d="m165.58 14.809 0.73813 0.7215 1.0313-0.04227-0.45809 0.92496 0.3589 0.96777-1.0212-0.14984-0.8095 0.64039-0.17308-1.0176-0.85919-0.57199 0.91427-0.47905z" style="paint-order:stroke markers fill"/>
    <path transform="matrix(.48145 -.48145 .48145 .48145 112.74 85.859)" d="m165.58 14.809 0.73813 0.7215 1.0313-0.04227-0.45809 0.92496 0.3589 0.96777-1.0212-0.14984-0.8095 0.64039-0.17308-1.0176-0.85919-0.57199 0.91427-0.47905z" style="paint-order:stroke markers fill"/>
    <path transform="matrix(.58965 -.34043 .34043 .58965 100.03 48.956)" d="m165.58 14.809 0.73813 0.7215 1.0313-0.04227-0.45809 0.92496 0.3589 0.96777-1.0212-0.14984-0.8095 0.64039-0.17308-1.0176-0.85919-0.57199 0.91427-0.47905z" style="paint-order:stroke markers fill"/>
   </g>
   <path d="m203.35-2.4588 0.73813 0.72149 1.0313-0.042269-0.45809 0.92496 0.3589 0.96777-1.0212-0.14984-0.8095 0.64039-0.17308-1.0176-0.85919-0.57199 0.91428-0.47905z" fill="url(#linearGradient1418)" style="paint-order:stroke markers fill"/>
   <path transform="scale(.26458)" d="m734.08 48.814c-1.5898 0-2.8691 1.2812-2.8691 2.8711 0 1.5899 1.2793 2.8691 2.8691 2.8691 1.5899-1e-6 2.8692-1.2793 2.8692-2.8691 0-1.5899-1.2793-2.8711-2.8692-2.8711zm-3.9453 5.3105c-0.83319 0-1.5039 0.67071-1.5039 1.5039 0 0.8332 0.67071 1.5039 1.5039 1.5039 0.8332 1e-6 1.5039-0.6707 1.5039-1.5039 0-0.8332-0.67071-1.5039-1.5039-1.5039z" fill="url(#linearGradient1420)" style="paint-order:stroke markers fill"/>
  </g>
 </g>
</svg>
